grf
version=1
nRows=8
nColumns=28
inDegrees=no
endheader
time	ground_force_1_vx	ground_force_1_vy	ground_force_1_vz	ground_force_1_px	ground_force_1_py	ground_force_1_pz	ground_moment_1_mx	ground_moment_1_my	ground_moment_1_mz	ground_force_2_vx	ground_force_2_vy	ground_force_2_vz	ground_force_2_px	ground_force_2_py	ground_force_2_pz	ground_moment_2_mx	ground_moment_2_my	ground_moment_2_mz	ground_force_3_vx	ground_force_3_vy	ground_force_3_vz	ground_force_3_px	ground_force_3_py	ground_force_3_pz	ground_moment_3_mx	ground_moment_3_my	ground_moment_3_mz
      0.90000000	     -7.81340201	     -0.97390161	   -508.86719795	    608.95057668	  -1021.77658837	      1.44343561	      1.57653648	      5.70077627	   3123.71843660	      0.48027214	     -3.31517625	      2.25149802	    212.30725785	  -1551.89732898	      0.29675452	      0.06620654	      0.85624501	  -1026.01563731	      1.89916481	     -0.93013855	      4.68122172	    489.14547828	   -343.39927664	      0.51389855	     -0.09572825	      0.70321275	    342.42252048
      0.91000000	     -8.11201279	      4.99957864	   -509.11827005	    608.68448747	  -1017.52084078	      1.43580318	      1.73565169	      6.27613894	   3438.98620220	      0.54961899	     -3.60266113	      1.89229915	    163.00490724	  -1464.02233397	      0.36690782	      0.07209239	      0.93236635	  -1117.22981728	      1.81759485	     -0.92021439	      4.62090713	    464.22249146	   -328.89122240	      0.47713671	     -0.13877399	      1.01942359	    496.39827035
      0.92000000	    -10.59254480	     11.28727164	   -518.19344268	    608.32078598	  -1013.61831635	      1.42886465	      1.83953237	      6.65177282	   3644.81334204	      0.41779783	     -3.03746224	      2.05291292	    191.73694345	  -1528.54132927	      0.31491854	      0.06027610	      0.77954708	   -934.11054728	      1.95550211	     -0.60652104	      4.36383263	    502.87998225	   -331.47869122	      0.49325760	     -0.12779102	      0.93874349	    457.11189093
      0.93000000	    -12.92332385	     17.75613151	   -535.74476446	    607.86084868	  -1010.00745137	      1.42250696	      1.99216971	      7.20371139	   3947.24595582	      0.62342890	     -3.30721940	      1.60289222	     70.22598185	  -1378.26933311	      0.43248480	      0.08375064	      1.08314189	  -1297.90013362	      1.74443232	     -0.83514583	      4.61042480	    482.82500734	   -351.62559767	      0.52902549	     -0.12811810	      0.94114619	    458.28186295
      0.94000000	    -15.00453053	     23.92998263	   -563.51851654	    607.04419081	  -1006.78447356	      1.41703720	      2.26276305	      8.18218041	   4483.39429468	      0.58168379	     -3.27871393	      2.14898630	    152.88289974	  -1437.62455629	      0.38828452	      0.06672380	      0.86293481	  -1034.03184241	      1.96446845	     -0.81871853	      4.72454206	    541.37585701	   -343.17317538	      0.52803584	     -0.13148668	      0.96589151	    470.33135463
      0.95000000	    -16.81753039	     30.17843465	   -600.38306029	    606.27820619	  -1003.60687587	      1.41162469	      2.49816498	      9.03339683	   4949.81505662	      0.51957372	     -3.31476786	      1.97726503	    138.65801193	  -1553.55737944	      0.29061672	      0.07651329	      0.98954157	  -1185.74136512	      1.97816073	     -0.89040617	      4.51939977	    514.27332924	   -376.31429146	      0.58851894	     -0.15905721	      1.16842262	    568.95187990
      0.96000000	    -18.95276850	     36.66588619	   -644.77728642	    605.35491040	  -1000.74556036	      1.40686878	      2.77068496	     10.01883260	   5489.78079851	      0.48515861	     -3.17182210	      1.77648264	     89.98001994	  -1445.64962005	      0.37752834	      0.08082764	      1.04533885	  -1252.60175698	      2.05671100	     -0.81005404	      4.83609825	    522.44204947	   -334.40464322	      0.50473526	     -0.21087833	      1.54909682	    754.31743269
      0.97000000	    -22.03832710	     44.11528317	   -696.13486140	    604.69649955	   -997.69890715	      1.40164095	      2.99966792	     10.84683796	   5943.48315013	      0.75098576	     -3.32057507	      2.08634009	    148.69941082	  -1524.77679652	      0.31528305	      0.07097024	      0.91785374	  -1099.83973530	      2.12182931	     -0.83884701	      4.76972314	    523.08553292	   -377.39893873	      0.59320997	     -0.18632955	      1.36876324	    666.50577490
